<?xml version="1.0" encoding="UTF-8"?>
<svg xmlns="http://www.w3.org/2000/svg" id="Layer_1" data-name="Layer 1" viewBox="0 0 24 24">
  <path d="m19,11.5v7c0,.276-.224.5-.5.5s-.5-.224-.5-.5v-7c0-.276.224-.5.5-.5s.5.224.5.5Zm4.5-2.5c-.276,0-.5.224-.5.5v10c0,1.93-1.57,3.5-3.5,3.5H4.5c-1.93,0-3.5-1.57-3.5-3.5V4.5c0-1.93,1.57-3.5,3.5-3.5h10c.276,0,.5-.224.5-.5s-.224-.5-.5-.5H4.5C2.019,0,0,2.019,0,4.5v15c0,2.481,2.019,4.5,4.5,4.5h15c2.481,0,4.5-2.019,4.5-4.5v-10c0-.276-.224-.5-.5-.5Zm-8.677-4.783l2.83-1.071,1.133-2.832c.152-.38.776-.38.929,0l1.135,2.836,2.836,1.135c.19.076.314.26.314.464s-.125.388-.314.464l-2.836,1.135-1.135,2.836c-.076.19-.26.314-.464.314s-.388-.125-.464-.314l-1.137-2.842-2.843-1.198c-.188-.08-.31-.266-.306-.47s.132-.386.323-.458Zm1.523.493l1.884.794c.123.052.22.151.27.275l.75,1.875.75-1.875c.051-.127.151-.228.279-.279l1.875-.75-1.875-.75c-.127-.051-.228-.151-.279-.279l-.75-1.875-.75,1.875c-.052.13-.156.232-.288.282l-1.866.706Zm-5.154,1.531l3.785,12.111c.083.263-.064.544-.328.626-.049.016-.1.023-.149.023-.213,0-.41-.137-.477-.351l-1.14-3.649h-6.765l-1.14,3.649c-.083.264-.364.411-.626.328-.264-.082-.411-.363-.328-.626l3.785-12.111c.236-.756.901-1.245,1.692-1.245h0c.792,0,1.456.489,1.692,1.245Zm1.378,7.76l-2.332-7.462c-.125-.4-.463-.542-.738-.542h0c-.275,0-.613.143-.738.543l-2.332,7.461h6.14Z"/>
</svg>
