<svg version="1.1" id="Layer_1" xmlns:x="ns_extend;" xmlns:i="ns_ai;" xmlns:graph="ns_graphs;" xmlns="http://www.w3.org/2000/svg" xmlns:xlink="http://www.w3.org/1999/xlink" x="0px" y="0px" viewBox="0 0 54 68" style="enable-background:new 0 0 54 68;" xml:space="preserve">
 <style type="text/css">
  .st0{fill:#FFFFFF;}
 </style>
 <metadata>
  <sfw xmlns="ns_sfw;">
   <slices>
   </slices>
   <sliceSourceBounds bottomLeftOrigin="true" height="67.5" width="53.8" x="0.2" y="0.5">
   </sliceSourceBounds>
  </sfw>
 </metadata>
 <path class="st0" d="M52.1,13.9L29,0.5c-1.2-0.7-2.7-0.7-3.8,0L2.1,13.9c-1.2,0.7-1.9,2-1.9,3.3v26.8c0,1.4,0.7,2.7,1.9,3.4
	l23.1,13.4c0,0,0,0,0.1,0l11.5,6.7l0-5.8l0-3.2l0,0.1v-1.1c0-0.7,0.4-1.3,0.9-1.6l0.6-0.3l0.4-0.2l0,0l13.5-7.8
	c1.2-0.7,1.9-2,1.9-3.4V17.3C54,15.9,53.3,14.6,52.1,13.9z M17.8,45.1c-1.7-1.6-1.7-4.2,0-5.8c1.5-1.5,4-1.5,5.5,0
	c0.1,0.1,0.1,0.1,0.2,0.2l9.3-5.4l1.9,1.1l-10.4,6c0.3,1.4,0,2.8-1.1,3.9C21.8,46.6,19.3,46.6,17.8,45.1z M40.6,34.4
	c-1.5,1.5-4,1.5-5.5,0c-1.2-1.1-1.5-2.8-1-4.2l-0.1,0l-10.5-6.1c0,0.1-0.1,0.1-0.1,0.2c-1.5,1.5-4,1.5-5.5,0c-1.7-1.6-1.7-4.2,0-5.8
	c1.5-1.5,4-1.5,5.5,0c1.1,1.1,1.5,2.6,1.1,3.9L35,28.6c0,0,0,0,0-0.1c1.5-1.5,4-1.5,5.5,0C42.3,30.2,42.3,32.8,40.6,34.4z">
 </path>
</svg>