<!DOCTYPE svg PUBLIC "-//W3C//DTD SVG 1.1//EN" "http://www.w3.org/Graphics/SVG/1.1/DTD/svg11.dtd">
<!-- Uploaded to: SVG Repo, www.svgrepo.com, Transformed by: SVG Repo Mixer Tools -->
<svg fill="#bec6cf" height="800px" width="800px" version="1.1" id="Layer_1" xmlns="http://www.w3.org/2000/svg" xmlns:xlink="http://www.w3.org/1999/xlink" viewBox="0 0 512.001 512.001" xml:space="preserve">
<g id="SVGRepo_bgCarrier" stroke-width="0"/>
<g id="SVGRepo_tracerCarrier" stroke-linecap="round" stroke-linejoin="round"/>
<g id="SVGRepo_iconCarrier"> <g> <g> <path d="M498.538,60.958l-47.496-47.495C442.361,4.782,430.817,0,418.539,0s-23.82,4.781-32.502,13.463L45.549,353.953 c0,0-0.004,0.011-0.012,0.033c-1.158,1.165-2.046,2.601-2.538,4.226L0.437,498.848c-1.089,3.599-0.109,7.507,2.55,10.167 C4.928,510.954,7.535,512,10.2,512c0.986,0,1.981-0.144,2.954-0.437l140.637-42.561c1.631-0.494,3.073-1.386,4.24-2.551 c0.003,0,0.018,0.001,0.018,0.001l340.489-340.489c8.682-8.682,13.463-20.225,13.463-32.502 C512.001,81.183,507.22,69.641,498.538,60.958z M25.48,486.521l10.614-35.074l24.46,24.46L25.48,486.521z M82.7,469.204 L42.797,429.3l14.793-48.883l73.993,73.993L82.7,469.204z M150.837,444.816l-83.652-83.652l254.821-254.821l83.652,83.652 L150.837,444.816z M420.082,175.571L336.43,91.919l19.81-19.81l83.652,83.652L420.082,175.571z M484.114,111.539l-29.798,29.798 l-83.652-83.652l29.798-29.798c4.828-4.829,11.249-7.488,18.077-7.488c6.829,0,13.25,2.659,18.078,7.488l47.496,47.496 c4.829,4.829,7.488,11.249,7.488,18.078C491.602,100.29,488.943,106.71,484.114,111.539z"/> </g> </g> <g> <g> <path d="M307.069,256.948c-3.983-3.983-10.441-3.983-14.425,0l-4.08,4.08c-3.983,3.983-3.983,10.441,0,14.425 c1.992,1.992,4.602,2.987,7.212,2.987s5.221-0.995,7.212-2.987l4.08-4.08C311.052,267.389,311.052,260.931,307.069,256.948z"/> </g> </g> <g> <g> <path d="M273.411,290.605c-3.983-3.984-10.441-3.984-14.424,0L143.736,405.856c-3.983,3.983-3.983,10.441,0,14.425 c1.992,1.992,4.602,2.987,7.212,2.987c2.61,0,5.221-0.995,7.212-2.987L273.411,305.03 C277.394,301.047,277.394,294.589,273.411,290.605z"/> </g> </g> </g>
</svg>